<?xml version="1.0" encoding="utf-8"?>
<!-- Generator: Adobe Illustrator 15.0.0, SVG Export Plug-In . SVG Version: 6.00 Build 0)  -->
<!DOCTYPE svg PUBLIC "-//W3C//DTD SVG 1.1//EN" "http://www.w3.org/Graphics/SVG/1.1/DTD/svg11.dtd">
<svg version="1.1" id="Ebene_1" xmlns="http://www.w3.org/2000/svg" xmlns:xlink="http://www.w3.org/1999/xlink" x="0px" y="0px"
	 width="1000px" height="1000px" viewBox="0 0 1000 1000" enable-background="new 0 0 1000 1000" xml:space="preserve">
<path fill="#0473A4" d="M989.929,500.016c0,270.572-219.344,489.907-489.918,489.907c-270.583,0-489.938-219.335-489.938-489.907
	c0-270.585,219.355-489.939,489.938-489.939C770.585,10.076,989.929,229.431,989.929,500.016z"/>
<path d="M500.001,29.834c-259.669,0-470.171,210.504-470.171,470.171c0,259.666,210.502,470.171,470.171,470.171
	c259.676,0,470.181-210.505,470.181-470.171C970.182,240.338,759.677,29.834,500.001,29.834z"/>
<g>
	<path fill="#0473A4" d="M767.292,469.907h120.537c-0.745-10.151-1.763-20.218-3.262-30.139H767.292V469.907z"/>
	<path fill="#0473A4" d="M235.846,388.719v-103.35h-0.012c0,0,0-0.104,0.012-0.199v-0.189c0.01-1.331-0.326-6.333-5.59-12.847
		c-2.579-3.177-12.921-10.718-12.921-10.718l0.011-8.254h44.507v0.013h60.363h7.97h36.526l0.01,8.295c0,0-12.909,6.658-12.909,10.77
		c0,4.132,0.493,7.017,1.069,9.03l146.683,274.777l146.689-274.788c0.577-2.025,1.07-4.899,1.07-9.02
		c0-4.111-12.92-10.77-12.92-10.77l0.01-8.295h36.527h7.981h60.36v-0.013h44.497l0.012,8.254c0,0-10.341,7.541-12.911,10.718
		c-5.042,6.229-5.557,11.044-5.589,12.627v0.504c0,0.031,0.01,0.104,0.01,0.104h-0.01v103.35h105.896
		c-47.367-161.415-196.473-279.31-373.209-279.31c-176.746,0-325.86,117.895-373.221,279.31H235.846z"/>
	<path fill="#0473A4" d="M235.846,469.907v-30.139H115.371c-1.499,9.921-2.518,19.987-3.25,30.139H235.846z"/>
	<path fill="#0473A4" d="M767.292,520.947v191.479c0.167,2.046,1.079,6.472,5.548,11.986c2.582,3.189,12.91,10.729,12.91,10.729
		l-0.011,8.253h-18.447h-26.05h-42.187h-26.114h-18.395l-0.01-8.253c0,0,10.339-7.54,12.917-10.729
		c4.136-5.105,5.213-9.258,5.487-11.47V432.721L501.564,743.343L330.186,432.71v280.233c0.273,2.212,1.352,6.364,5.496,11.47
		c2.567,3.189,12.909,10.729,12.909,10.729l-0.012,8.253h-18.394h-26.103h-42.188h-26.05h-18.458l-0.01-8.253
		c0,0,10.341-7.54,12.91-10.729c4.477-5.525,5.39-9.95,5.558-11.986V520.947H111.668
		c11.683,204.338,181.026,366.456,388.312,366.456c207.263,0,376.605-162.118,388.299-366.456H767.292z"/>
</g>
</svg>
