<?xml version="1.0" encoding="utf-8"?>
<!-- Generator: Adobe Illustrator 15.0.0, SVG Export Plug-In . SVG Version: 6.00 Build 0)  -->
<!DOCTYPE svg PUBLIC "-//W3C//DTD SVG 1.1//EN" "http://www.w3.org/Graphics/SVG/1.1/DTD/svg11.dtd">
<svg version="1.1" id="Ebene_1" xmlns="http://www.w3.org/2000/svg" xmlns:xlink="http://www.w3.org/1999/xlink" x="0px" y="0px"
	 width="1000px" height="1000px" viewBox="0 0 1000 1000" enable-background="new 0 0 1000 1000" xml:space="preserve">
<rect x="-0.021" fill="#FFFFFF" width="1000" height="1000"/>
<path d="M884.907,500.012c0,212.584-172.334,384.911-384.919,384.911c-212.592,0-384.936-172.327-384.936-384.911
	c0-212.593,172.344-384.936,384.936-384.936C712.573,115.076,884.907,287.419,884.907,500.012z"/>
<path fill="#FFFFFF" d="M499.98,130.6c-204.017,0-369.404,165.389-369.404,369.404c0,204.015,165.388,369.404,369.404,369.404
	c204.022,0,369.412-165.39,369.412-369.404C869.393,295.988,704.003,130.6,499.98,130.6z"/>
<g>
	<path d="M709.985,476.356h94.704c-0.585-7.976-1.385-15.885-2.563-23.68h-92.141V476.356z"/>
	<path d="M292.438,412.568v-81.2h-0.009c0,0,0-0.082,0.009-0.156v-0.148c0.008-1.046-0.256-4.977-4.392-10.094
		c-2.026-2.496-10.151-8.421-10.151-8.421l0.009-6.484h34.968v0.01h47.426h6.262h28.698l0.008,6.517c0,0-10.143,5.231-10.143,8.462
		c0,3.246,0.388,5.513,0.84,7.095l115.246,215.888L616.46,328.139c0.453-1.591,0.841-3.849,0.841-7.086
		c0-3.23-10.15-8.462-10.15-8.462l0.008-6.517h28.698h6.271h47.424v-0.01h34.96l0.009,6.484c0,0-8.124,5.925-10.144,8.421
		c-3.962,4.895-4.366,8.677-4.392,9.921v0.396c0,0.024,0.009,0.082,0.009,0.082h-0.009v81.2h83.201
		C755.971,285.747,638.822,193.12,499.964,193.12c-138.866,0-256.022,92.627-293.232,219.448H292.438z"/>
	<path d="M292.438,476.356v-23.68h-94.654c-1.178,7.795-1.978,15.704-2.554,23.68H292.438z"/>
	<path d="M709.985,516.458v150.441c0.132,1.607,0.848,5.085,4.359,9.418c2.028,2.505,10.143,8.43,10.143,8.43l-0.008,6.484h-14.494
		H689.52h-33.146h-20.517h-14.452l-0.008-6.484c0,0,8.124-5.925,10.149-8.43c3.248-4.012,4.096-7.274,4.311-9.013V447.14
		l-134.647,244.05L366.56,447.132v220.173c0.215,1.738,1.062,5.001,4.318,9.013c2.018,2.505,10.143,8.43,10.143,8.43l-0.009,6.484
		H366.56h-20.508h-33.146h-20.467h-14.502l-0.008-6.484c0,0,8.125-5.925,10.144-8.43c3.518-4.342,4.234-7.818,4.366-9.418V516.458
		h-97.563c9.179,160.544,142.229,287.917,305.089,287.917c162.843,0,295.892-127.373,305.079-287.917H709.985z"/>
</g>
</svg>
